<svg version="1.2" xmlns="http://www.w3.org/2000/svg" viewBox="0 0 3942 2904" width="3942" height="2904"><defs><clipPath clipPathUnits="userSpaceOnUse" id="cp1"><path d="m-934-270h5760v3240h-5760z"/></clipPath></defs><style>.a{fill:#23b893}.b{fill:#fff}</style><g clip-path="url(#cp1)"><path class="a" d="m3384.1 2897.7h-2822.4c-305 0-552.3-247.3-552.3-552.3v-1778.4c0-305.1 247.3-552.3 552.3-552.3h2822.4c305 0 552.3 247.2 552.3 552.3v1778.4c0 305-247.2 552.3-552.3 552.3z"/><g style="opacity:.9"><path class="b" d="m2855.9 811.9l-387.7 174.3c-47.8-64.3-105.9-116.5-174.5-156.4-98.6-57.6-212.7-86.4-342.1-86.4-129.5 0-244.1 28.8-343.8 86.4q-149.6 86.2-232.8 248.2c-42.1 81.8-68.2 174-78.3 276.5-3.3 32.7-5 66.4-5 101.2 0 7.9 0.1 15.9 0.3 23.7v871.6q-180.3-129.6-296.3-326.5c-98.6-167.5-148-357.2-148-568.8q0.1-314.5 148-565.8c98.7-167.5 232.4-298.5 400.9-393.1 168.5-94.5 353.5-141.9 555-141.9q305.2 0 556.5 141.8c140.5 79.4 256.5 184.4 347.8 315.2z"/></g><g style="opacity:.9"><path class="b" d="m2901.1 2033.8c-97.1 163.1-228.4 291-393.8 383.8-168.5 94.6-353.5 141.8-555 141.8-197.9 0-379.8-45.5-545.9-136.7v-533.8c0.1 0.1 0.2 0.2 0.2 0.4v-563.6c0-194.2 157.4-351.6 351.6-351.6v1175q90.7 24.9 194.1 24.9c129.4 0 243.5-29.3 342.2-87.8 82.7-49.2 150.3-116 202.7-200.6z"/></g></g></svg>