<svg version="1.2" xmlns="http://www.w3.org/2000/svg" viewBox="0 0 288 291" width="288" height="291">
	<title>3049282_410199-PD8Q59-641-svg</title>
	<defs>
		<radialGradient id="g1" cx="0" cy="0" r="1" gradientUnits="userSpaceOnUse" gradientTransform="matrix(85.468,0,0,85.468,144,336.757)">
			<stop offset="0" stop-color="#000000"/>
			<stop offset="1" stop-color="#dae5df"/>
		</radialGradient>
		<linearGradient id="g2" x2="1" gradientUnits="userSpaceOnUse" gradientTransform="matrix(0,246.109,-248.029,0,147.322,20.311)">
			<stop offset="0" stop-color="#4ac14b"/>
			<stop offset="1" stop-color="#06853a"/>
		</linearGradient>
	</defs>
	<style>
		.s0 { opacity: .2;fill: url(#g1) } 
		.s1 { fill: url(#g2) } 
		.s2 { fill: #ffffff } 
		.s3 { fill: #1d262d } 
	</style>
	<g id="BACKGROUND">
	</g>
	<g id="OBJECTS">
		<path class="s0" d="m144 343.2c-66.5 0-120.3-2.9-120.3-6.4 0-3.6 53.8-6.5 120.3-6.5 66.5 0 120.3 2.9 120.3 6.5 0 3.5-53.8 6.4-120.3 6.4z"/>
		<g>
			<path fill-rule="evenodd" class="s1" d="m147.3 20.3c-68.4 0-124 55.2-124 123.1 0 26.9 8.8 51.8 23.6 72.1l-15.5 45.7 47.7-15.1c19.6 12.8 43 20.3 68.2 20.3 68.4 0 124-55.2 124-123 0-67.9-55.6-123.1-124-123.1z"/>
			<g>
				<path fill-rule="evenodd" class="s2" d="m287.1 142.3c0 77-62.9 139.5-140.5 139.5-24.6 0-47.8-6.3-67.9-17.4l-77.8 24.7 25.3-74.8c-12.8-21-20.1-45.6-20.1-72 0-77 62.9-139.4 140.5-139.4 77.6 0 140.5 62.4 140.5 139.4zm-140.5-117.2c-65.2 0-118.1 52.6-118.1 117.2 0 25.7 8.3 49.4 22.5 68.8l-14.8 43.5 45.4-14.4c18.6 12.2 41 19.3 65 19.3 65.1 0 118.2-52.5 118.2-117.2 0-64.6-53.1-117.2-118.2-117.2zm69 165.6c-2.9 8-17 15.7-23.3 16.2-6.3 0.6-6.3 5.2-41.3-8.5-35.1-13.7-57.2-49.3-58.9-51.6-1.7-2.3-14-18.6-14-35.4 0-16.8 8.9-25.1 12-28.5 3.2-3.4 10.1-4.2 10.1-4.2 0 0 3.7-0.6 5.7-0.6 2 0 4.9-0.3 7.7 6.5 2.9 6.9 9.8 23.7 10.7 25.4 0.8 1.7 1.4 3.7 0.3 6-1.2 2.3-1.8 3.7-3.5 5.7-1.7 2-3.6 4.5-5.2 6-1.7 1.7-3.5 3.5-1.5 7 2 3.4 9 14.6 19.2 23.6 13.1 11.7 24.3 15.3 27.7 17 3.4 1.7 5.5 1.4 7.5-0.9 2-2.2 8.6-9.9 10.9-13.4 2.3-3.4 4.6-2.8 7.7-1.7 3.2 1.2 20.1 9.4 23.6 11.1 3.4 1.8 5.7 2.6 6.6 4 0.8 1.5 0.8 8.3-2 16.3z"/>
			</g>
		</g>
	</g>
	<g id="DESIGNED_BY_FREEPIK">
		<g>
			<g id="XMLID_29_">
				<g id="XMLID_48_">
					<path id="XMLID_56_" class="s3" d="m154.1 384.7q-0.6 0.7-1.1 1.5l-0.5-0.3c0-0.3-0.3-0.5-0.6-0.4-0.4 0-0.6 0.3-0.6 0.6 0.1 0.4 0.4 0.6 0.7 0.6q0.1 0 0.2-0.1l0.4 0.3q-0.3 0.8-0.5 1.7l0.8 0.1c0.2-1.3 0.8-2.5 1.7-3.4z"/>
					<path id="XMLID_55_" class="s3" d="m159.6 382.4q-0.3 0-0.5 0l-0.1-0.6c0.2-0.1 0.3-0.4 0.3-0.6-0.1-0.4-0.4-0.7-0.8-0.7-0.4 0.1-0.7 0.4-0.6 0.8 0 0.3 0.1 0.5 0.4 0.6v0.6q-1 0.2-2 0.7l0.3 0.7q1.4-0.7 3-0.7 0.7 0 1.5 0.1l0.1-0.7q-0.8-0.2-1.6-0.2z"/>
					<path id="XMLID_54_" class="s3" d="m166.2 385c0.3-0.1 0.6-0.4 0.5-0.7 0-0.3-0.3-0.6-0.7-0.5-0.3 0-0.5 0.3-0.5 0.6l-0.4 0.3q-0.6-0.6-1.4-1.1l-0.4 0.6c1.1 0.8 2 1.8 2.6 3l0.6-0.3q-0.3-0.9-0.9-1.6l0.4-0.3q0.1 0 0.2 0z"/>
					<path id="XMLID_53_" class="s3" d="m159 392.6q-0.5 0.1-1.1 0.1c-0.9 0-1.7-0.1-2.5-0.2-0.4-0.1-0.8-0.2-1.3-0.3 1.1 1.9 3.1 3.1 5.4 3.1 2.9 0 5.3-1.9 6-4.5q-1 0.7-2.5 1.1c-1.2 0.4-2.5 0.6-4 0.7z"/>
					<path id="XMLID_49_" fill-rule="evenodd" class="s3" d="m165.6 389.1q0.1 0.3 0.1 0.6c-1.4 1.2-3.8 2-6.7 2.2-2.6 0.1-4.7-0.3-5.4-0.8q-0.1-0.6-0.1-1.2c0-3.3 2.7-6 6.1-6 3 0 5.6 2.3 6 5.2zm-6.3-0.5c0-1-0.8-1.8-1.9-1.8-1 0-1.8 0.8-1.8 1.8 0 1 0.8 1.9 1.8 1.9 1.1 0 1.9-0.9 1.9-1.9zm4.2-0.4c0-0.8-0.6-1.4-1.3-1.4-0.8 0-1.4 0.6-1.4 1.4 0 0.7 0.6 1.3 1.4 1.3 0.7 0 1.3-0.6 1.3-1.3z"/>
				</g>
				<path id="XMLID_46_" class="s3" d="m175.6 385.8c-0.3-0.1-0.8-0.3-1.4-0.2-0.5 0-0.8 0.3-0.8 1v0.8h2.2v1.8h-2.2v5.4h-2v-5.4h-1.3v-1.8h1.3v-0.8c0-1.7 0.9-2.8 2.6-2.8 0.6 0 1.2 0.1 1.6 0.3z"/>
				<path id="XMLID_44_" class="s3" d="m180.3 389.1q-0.3 0-0.5 0c-0.9 0-1.5 0.5-1.5 1.6v3.9h-2v-7.2h1.9v0.8c0.5-0.6 1.1-1 2-1 0.4 0 0.9 0.2 1.1 0.4z"/>
				<path id="XMLID_41_" fill-rule="evenodd" class="s3" d="m188 391c0 0.2-0.1 0.5-0.1 0.7h-5.1c0.3 1 1 1.5 1.9 1.5 0.6 0 1.3-0.3 1.8-0.7l1.1 1.2c-0.8 0.8-1.8 1.1-3 1.1-2.2 0-3.7-1.5-3.7-3.8 0-2.2 1.4-3.8 3.6-3.8 2 0 3.5 1.6 3.5 3.8zm-5.1-0.7h3.1c-0.2-0.9-0.7-1.4-1.5-1.4-0.9 0-1.5 0.6-1.6 1.4z"/>
				<path id="XMLID_38_" fill-rule="evenodd" class="s3" d="m195.6 391c0 0.2 0 0.5 0 0.7h-5.1c0.2 1 0.9 1.5 1.8 1.5 0.7 0 1.3-0.3 1.9-0.7l1.1 1.2c-0.8 0.8-1.9 1.1-3.1 1.1-2.2 0-3.7-1.5-3.7-3.8 0-2.2 1.5-3.8 3.6-3.8 2.1 0 3.5 1.6 3.5 3.8zm-5.1-0.7h3.2c-0.2-0.9-0.8-1.4-1.6-1.4-0.9 0-1.4 0.6-1.6 1.4z"/>
				<path id="XMLID_35_" fill-rule="evenodd" class="s3" d="m204 391c0 2.2-1.5 3.8-3.5 3.8-1 0-1.6-0.4-2.1-0.9v3.7h-1.9v-10.2h1.8v0.8c0.5-0.6 1.2-1 2.2-1 2 0 3.5 1.7 3.5 3.8zm-5.7 0c0 1.2 0.7 2 1.8 2 1.2 0 1.9-0.9 1.9-2 0-1.1-0.7-2-1.9-2-1.1 0-1.8 0.9-1.8 2z"/>
				<path id="XMLID_32_" class="s3" d="m207.1 385.1c0 0.7-0.6 1.2-1.3 1.2-0.7 0-1.2-0.5-1.2-1.2 0-0.7 0.5-1.2 1.2-1.2 0.7 0 1.3 0.5 1.3 1.2zm-0.3 9.5h-1.9v-7.2h1.9z"/>
				<path id="XMLID_30_" class="s3" d="m210 390l2.7-2.6h2.4l-3.5 3.4 3.5 3.8h-2.4l-2.7-2.9v2.9h-1.9v-10.6h1.9z"/>
			</g>
			<g>
				<path fill-rule="evenodd" class="s3" d="m78.4 394.5v-1c-0.5 0.7-1.4 1.2-2.4 1.2-1.8 0-3.1-1.4-3.1-3.7 0-2.2 1.3-3.7 3.1-3.7 1 0 1.8 0.5 2.4 1.2v-3.7h1.1v9.7c0 0-1.1 0-1.1 0zm0-1.9v-3.2c-0.4-0.6-1.2-1.1-2.1-1.1-1.4 0-2.3 1.2-2.3 2.7 0 1.6 0.9 2.7 2.3 2.7 0.9 0 1.7-0.5 2.1-1.1z"/>
				<path fill-rule="evenodd" class="s3" d="m80.9 391c0-2 1.5-3.7 3.5-3.7 2.2 0 3.4 1.7 3.4 3.8v0.3h-5.7c0.1 1.3 1 2.4 2.5 2.4 0.8 0 1.7-0.3 2.2-0.9l0.5 0.7c-0.7 0.7-1.6 1.1-2.8 1.1-2.1 0-3.6-1.5-3.6-3.7zm3.5-2.8c-1.5 0-2.3 1.3-2.3 2.4h4.6c0-1.1-0.7-2.4-2.3-2.4z"/>
				<path class="s3" d="m88.6 393.6l0.6-0.8c0.4 0.6 1.3 1 2.3 1 1.1 0 1.7-0.5 1.7-1.2 0-1.7-4.4-0.6-4.4-3.3 0-1.1 0.9-2 2.6-2 1.2 0 2.1 0.5 2.7 1l-0.6 0.8c-0.4-0.5-1.2-0.9-2.1-0.9-0.9 0-1.5 0.5-1.5 1.1 0 1.6 4.3 0.5 4.3 3.3 0 1.2-0.9 2.1-2.7 2.1-1.2 0-2.2-0.3-2.9-1.1z"/>
				<path class="s3" d="m95.5 385.7c0-0.4 0.3-0.7 0.7-0.7 0.4 0 0.8 0.3 0.8 0.7 0 0.4-0.4 0.8-0.8 0.8-0.4 0-0.7-0.4-0.7-0.8zm0.2 8.8v-7h1.1v7z"/>
				<path fill-rule="evenodd" class="s3" d="m98.6 396.4l0.5-0.9c0.6 0.7 1.3 1 2.3 1 1.2 0 2.3-0.6 2.3-2.1v-1c-0.5 0.7-1.4 1.2-2.4 1.2-1.8 0-3.1-1.3-3.1-3.6 0-2.3 1.3-3.7 3.1-3.7 1 0 1.8 0.5 2.4 1.2v-1h1.1v6.8c0 2.4-1.6 3.1-3.4 3.1-1.2 0-2-0.2-2.8-1zm5.1-3.9v-3.1c-0.4-0.6-1.2-1.1-2.1-1.1-1.4 0-2.3 1.1-2.3 2.7 0 1.5 0.9 2.7 2.3 2.7 0.9 0 1.7-0.6 2.1-1.2z"/>
				<path class="s3" d="m111.4 394.5v-4.6c0-1.2-0.6-1.6-1.6-1.6-0.8 0-1.7 0.5-2.1 1.1v5.1h-1.1v-7h1.1v1c0.5-0.6 1.5-1.2 2.6-1.2 1.4 0 2.2 0.7 2.2 2.3v4.9c0 0-1.1 0-1.1 0z"/>
				<path fill-rule="evenodd" class="s3" d="m113.9 391c0-2 1.5-3.7 3.5-3.7 2.2 0 3.4 1.7 3.4 3.8v0.3h-5.7c0.1 1.3 1 2.4 2.5 2.4 0.8 0 1.7-0.3 2.2-0.9l0.5 0.7c-0.7 0.7-1.6 1.1-2.8 1.1-2.1 0-3.6-1.5-3.6-3.7zm3.5-2.8c-1.5 0-2.3 1.3-2.3 2.4h4.6c0-1.1-0.7-2.4-2.3-2.4z"/>
				<path fill-rule="evenodd" class="s3" d="m127.3 394.5v-1c-0.5 0.7-1.3 1.2-2.3 1.2-1.9 0-3.2-1.4-3.2-3.7 0-2.2 1.3-3.7 3.2-3.7 0.9 0 1.8 0.5 2.3 1.2v-3.7h1.1v9.7c0 0-1.1 0-1.1 0zm0-1.9v-3.2c-0.3-0.6-1.2-1.1-2.1-1.1-1.4 0-2.2 1.2-2.2 2.7 0 1.6 0.8 2.7 2.2 2.7 0.9 0 1.8-0.5 2.1-1.1z"/>
				<path fill-rule="evenodd" class="s3" d="m133.7 394.5v-9.7h1.1v3.7c0.6-0.7 1.4-1.2 2.4-1.2 1.8 0 3.1 1.5 3.1 3.7 0 2.3-1.3 3.7-3.1 3.7-1 0-1.9-0.5-2.4-1.2v1c0 0-1.1 0-1.1 0zm3.2-0.8c1.4 0 2.3-1.1 2.3-2.7 0-1.5-0.9-2.7-2.3-2.7-0.9 0-1.7 0.5-2.1 1.1v3.2c0.4 0.6 1.2 1.1 2.1 1.1z"/>
				<path class="s3" d="m141.5 396.3c0.2 0.1 0.5 0.1 0.6 0.1 0.5 0 0.8-0.1 1.1-0.7l0.5-1.1-3-7.1h1.2l2.3 5.8 2.4-5.8h1.2l-3.6 8.5c-0.4 1-1.1 1.4-2 1.4-0.3 0-0.6 0-0.8-0.1z"/>
			</g>
		</g>
	</g>
</svg>